<svg width="235" height="65" viewBox="0 0 235 65" fill="none" xmlns="http://www.w3.org/2000/svg">
<path d="M57.4668 50V19.9688H77.5743V25.6457H64.2271V31.9293H76.1009V37.6062H64.2271V50H57.4668ZM88.3742 50H81.9172V27.2058H88.3742V50ZM88.9808 20.6189C88.9808 21.8033 88.5908 22.7423 87.8108 23.4356C87.0597 24.1001 86.1641 24.4323 85.124 24.4323C84.084 24.4323 83.1739 24.1001 82.3939 23.4356C81.6428 22.7423 81.2672 21.8033 81.2672 20.6189C81.2672 19.4344 81.6428 18.5099 82.3939 17.8454C83.1739 17.1521 84.084 16.8054 85.124 16.8054C86.1641 16.8054 87.0597 17.1521 87.8108 17.8454C88.5908 18.5099 88.9808 19.4344 88.9808 20.6189ZM108.181 32.926C107.603 32.7816 106.924 32.6371 106.144 32.4927C105.364 32.3193 104.526 32.2326 103.631 32.2326C103.226 32.2326 102.735 32.276 102.157 32.3626C101.608 32.4204 101.19 32.4927 100.901 32.5793V50H94.4438V28.4192C95.5994 28.0147 96.9572 27.6391 98.5173 27.2924C100.106 26.9169 101.868 26.7291 103.804 26.7291C104.151 26.7291 104.57 26.758 105.061 26.8158C105.552 26.8447 106.043 26.9024 106.534 26.9891C107.025 27.0469 107.516 27.1336 108.008 27.2491C108.499 27.3358 108.918 27.4513 109.264 27.5958L108.181 32.926ZM111.219 38.7762C111.219 36.7539 111.523 34.9916 112.129 33.4894C112.765 31.9582 113.588 30.687 114.599 29.6759C115.61 28.6647 116.766 27.8991 118.066 27.3791C119.395 26.8591 120.753 26.5991 122.14 26.5991C125.375 26.5991 127.932 27.5958 129.81 29.5892C131.688 31.5537 132.627 34.4572 132.627 38.2995C132.627 38.6751 132.612 39.094 132.583 39.5563C132.554 39.9896 132.526 40.3796 132.497 40.7263H117.849C117.994 42.0552 118.615 43.1097 119.713 43.8898C120.811 44.6698 122.284 45.0598 124.133 45.0598C125.317 45.0598 126.473 44.9587 127.6 44.7565C128.755 44.5253 129.694 44.2509 130.417 43.9331L131.283 49.1766C130.937 49.35 130.474 49.5233 129.897 49.6967C129.319 49.87 128.669 50.0144 127.946 50.13C127.253 50.2745 126.502 50.39 125.693 50.4767C124.884 50.5634 124.075 50.6067 123.266 50.6067C121.215 50.6067 119.424 50.3033 117.893 49.6967C116.39 49.09 115.134 48.2666 114.123 47.2266C113.14 46.1576 112.404 44.9009 111.913 43.4564C111.45 42.0119 111.219 40.4518 111.219 38.7762ZM126.386 36.3061C126.358 35.7572 126.256 35.2228 126.083 34.7027C125.939 34.1827 125.693 33.7205 125.346 33.316C125.029 32.9116 124.61 32.5793 124.09 32.3193C123.599 32.0593 122.977 31.9293 122.226 31.9293C121.504 31.9293 120.883 32.0593 120.363 32.3193C119.843 32.5504 119.409 32.8682 119.063 33.2727C118.716 33.6771 118.442 34.1538 118.239 34.7027C118.066 35.2228 117.936 35.7572 117.849 36.3061H126.386ZM143.113 38.4295C143.113 40.423 143.561 42.0264 144.456 43.2397C145.352 44.4531 146.681 45.0598 148.443 45.0598C149.021 45.0598 149.556 45.0454 150.047 45.0165C150.538 44.9587 150.942 44.9009 151.26 44.8431V33.0993C150.856 32.8393 150.321 32.6227 149.657 32.4493C149.021 32.276 148.371 32.1893 147.707 32.1893C144.644 32.1893 143.113 34.2694 143.113 38.4295ZM157.717 49.2633C157.139 49.4366 156.475 49.61 155.724 49.7833C154.972 49.9278 154.178 50.0578 153.34 50.1733C152.531 50.2889 151.693 50.3756 150.827 50.4334C149.989 50.52 149.18 50.5634 148.4 50.5634C146.522 50.5634 144.846 50.2889 143.373 49.74C141.9 49.1911 140.657 48.411 139.646 47.3999C138.635 46.3599 137.855 45.1176 137.306 43.6731C136.786 42.1997 136.526 40.553 136.526 38.7329C136.526 36.8839 136.757 35.2228 137.219 33.7494C137.682 32.2471 138.346 30.9759 139.213 29.9359C140.08 28.8958 141.134 28.1014 142.376 27.5525C143.648 27.0035 145.092 26.7291 146.71 26.7291C147.605 26.7291 148.4 26.8158 149.093 26.9891C149.816 27.1624 150.538 27.408 151.26 27.7258V17.4121L157.717 16.372V49.2633ZM172.473 45.4932C173.109 45.4932 173.715 45.4787 174.293 45.4498C174.871 45.4209 175.333 45.3776 175.68 45.3198V40.423C175.42 40.3652 175.03 40.3074 174.51 40.2496C173.99 40.1918 173.513 40.1629 173.08 40.1629C172.473 40.1629 171.895 40.2063 171.346 40.293C170.826 40.3507 170.364 40.4807 169.96 40.683C169.555 40.8852 169.238 41.1597 169.006 41.5063C168.775 41.853 168.66 42.2864 168.66 42.8064C168.66 43.8175 168.992 44.5253 169.656 44.9298C170.35 45.3054 171.289 45.4932 172.473 45.4932ZM171.953 26.5991C173.86 26.5991 175.449 26.8158 176.72 27.2491C177.991 27.6825 179.002 28.3036 179.753 29.1125C180.534 29.9214 181.082 30.9037 181.4 32.0593C181.718 33.2149 181.877 34.5005 181.877 35.9161V49.35C180.952 49.5522 179.667 49.7833 178.02 50.0433C176.373 50.3322 174.38 50.4767 172.04 50.4767C170.566 50.4767 169.223 50.3467 168.01 50.0867C166.825 49.8267 165.8 49.4078 164.933 48.83C164.066 48.2233 163.402 47.4432 162.94 46.4899C162.477 45.5365 162.246 44.3664 162.246 42.9797C162.246 41.6508 162.506 40.5241 163.026 39.5996C163.575 38.6751 164.297 37.9384 165.193 37.3895C166.089 36.8406 167.114 36.4506 168.27 36.2195C169.425 35.9595 170.624 35.8294 171.867 35.8294C172.704 35.8294 173.441 35.8728 174.077 35.9595C174.741 36.0172 175.276 36.1039 175.68 36.2195V35.6128C175.68 34.515 175.348 33.6338 174.683 32.9693C174.019 32.3049 172.863 31.9726 171.216 31.9726C170.119 31.9726 169.035 32.0593 167.966 32.2326C166.897 32.3771 165.973 32.5938 165.193 32.8827L164.37 27.6825C164.745 27.5669 165.207 27.4513 165.756 27.3358C166.334 27.1913 166.955 27.0758 167.62 26.9891C168.284 26.8735 168.978 26.7869 169.7 26.7291C170.451 26.6424 171.202 26.5991 171.953 26.5991ZM194.259 45.3632C195.444 45.3632 196.282 45.2476 196.773 45.0165C197.264 44.7854 197.509 44.3376 197.509 43.6731C197.509 43.1531 197.192 42.7053 196.556 42.3297C195.92 41.9252 194.953 41.4774 193.653 40.9863C192.641 40.6107 191.717 40.2207 190.879 39.8163C190.07 39.4118 189.377 38.9351 188.799 38.3862C188.221 37.8084 187.773 37.1295 187.456 36.3495C187.138 35.5694 186.979 34.6305 186.979 33.5327C186.979 31.3948 187.773 29.7048 189.362 28.4625C190.951 27.2202 193.133 26.5991 195.906 26.5991C197.293 26.5991 198.622 26.7291 199.893 26.9891C201.164 27.2202 202.175 27.4802 202.926 27.7691L201.8 32.796C201.048 32.536 200.225 32.3049 199.329 32.1026C198.463 31.9004 197.48 31.7993 196.383 31.7993C194.36 31.7993 193.349 32.3626 193.349 33.4894C193.349 33.7494 193.393 33.9805 193.479 34.1827C193.566 34.3849 193.739 34.5872 193.999 34.7894C194.259 34.9627 194.606 35.165 195.039 35.3961C195.501 35.5983 196.079 35.8294 196.773 36.0895C198.188 36.6095 199.358 37.1295 200.283 37.6495C201.207 38.1406 201.93 38.6896 202.45 39.2962C202.998 39.874 203.374 40.5241 203.576 41.2463C203.807 41.9686 203.923 42.8064 203.923 43.7598C203.923 46.0132 203.071 47.7177 201.366 48.8733C199.691 50.0289 197.307 50.6067 194.216 50.6067C192.194 50.6067 190.504 50.4334 189.146 50.0867C187.817 49.74 186.892 49.4511 186.372 49.22L187.456 43.9764C188.553 44.4098 189.68 44.7565 190.836 45.0165C191.991 45.2476 193.133 45.3632 194.259 45.3632ZM208.748 50V17.4121L215.205 16.372V27.2924C215.639 27.148 216.188 27.018 216.852 26.9024C217.545 26.758 218.21 26.6858 218.845 26.6858C220.694 26.6858 222.226 26.9458 223.439 27.4658C224.681 27.9569 225.663 28.6647 226.386 29.5892C227.137 30.5137 227.657 31.6115 227.946 32.8827C228.264 34.1538 228.422 35.5694 228.422 37.1295V50H221.966V37.9095C221.966 35.8294 221.691 34.3561 221.142 33.4894C220.622 32.6227 219.64 32.1893 218.195 32.1893C217.618 32.1893 217.069 32.2471 216.549 32.3626C216.058 32.4493 215.61 32.5504 215.205 32.666V50H208.748Z" fill="#D7D7D7"/>
<path d="M20.814 64.7096C20.814 53.9951 7.41712 50.8835 2.20552 41.2114C-3.00607 31.5392 2.20552 21.7905 5.65437 17.1154C6.35947 19.5066 7.29449 21.5605 8.35214 23.354C8.22951 26.4043 8.79666 29.6385 10.5441 32.8575C14.1615 39.5712 21.703 43.1274 25.9949 48.247C27.1905 58.4863 20.814 64.7096 20.814 64.7096Z" fill="url(#paint0_linear_231_13)"/>
<path d="M25.9937 48.2437C21.7018 43.1241 14.1603 39.5679 10.5429 32.8541C8.81077 29.6352 8.22829 26.401 8.35092 23.3506C13.9764 32.8695 23.4952 35.5826 25.7945 46.9408C25.8864 47.4006 25.9477 47.8298 25.9937 48.2437Z" fill="#213BC2"/>
<path d="M29.1539 56.371C29.1539 53.0908 27.8969 50.5156 25.9962 48.247C25.9503 47.8178 25.8889 47.3887 25.8123 46.9595C23.4977 35.6012 13.9942 32.8728 8.36877 23.3693C8.62935 17.2686 11.7103 11.9038 14.0096 8.77679C14.7147 11.168 15.6344 13.222 16.692 15.0307V15.046C16.5694 18.0964 17.1519 21.3153 18.8839 24.5342C22.5014 31.248 30.0429 34.8042 34.3348 39.9238C35.5304 50.1477 29.1539 56.371 29.1539 56.371Z" fill="url(#paint1_linear_231_13)"/>
<path d="M34.3322 39.9062C30.0403 34.7866 22.4988 31.2304 18.8814 24.5166C17.1493 21.2977 16.5668 18.0634 16.6894 15.0284C22.3149 24.532 31.8337 27.2451 34.133 38.6186C34.2249 39.0632 34.2862 39.477 34.3322 39.9062Z" fill="#213BC2"/>
<path d="M37.4923 48.0314C37.4923 44.7512 36.2354 42.176 34.3347 39.9074C34.2887 39.4782 34.2274 39.049 34.1508 38.6198C31.8362 27.2616 22.3327 24.5332 16.7073 15.0296V15.0143C16.9679 8.91367 20.0488 3.54878 22.3481 0.421814C26.8086 15.4588 39.7456 16.7464 42.4893 30.2659C44.4207 41.287 37.4923 48.0314 37.4923 48.0314Z" fill="url(#paint2_linear_231_13)"/>
<defs>
<linearGradient id="paint0_linear_231_13" x1="-0.00877521" y1="40.9199" x2="26.141" y2="40.9199" gradientUnits="userSpaceOnUse">
<stop stop-color="#00FFB3"/>
<stop offset="1" stop-color="#44007A"/>
</linearGradient>
<linearGradient id="paint1_linear_231_13" x1="8.36001" y1="32.5814" x2="34.4808" y2="32.5814" gradientUnits="userSpaceOnUse">
<stop stop-color="#00FFB3"/>
<stop offset="1" stop-color="#44007A"/>
</linearGradient>
<linearGradient id="paint2_linear_231_13" x1="16.6985" y1="24.2341" x2="42.826" y2="24.2341" gradientUnits="userSpaceOnUse">
<stop stop-color="#00FFB3"/>
<stop offset="1" stop-color="#44007A"/>
</linearGradient>
</defs>
</svg>
